<svg xmlns="http://www.w3.org/2000/svg" xml:space="preserve" viewBox="0 0 64 64">
  <path fill="#FFF" d="M31.9 6c-6.2 0-11 0-14.7.4-3.8.4-6.8 1.3-9.2 3.2-2.5 2-3.6 4.5-4.1 7.7-.5 3.1-.5 7-.5 11.9v.5c0 4.8 0 8 .5 10.5.3 1.3.7 2.5 1.5 3.5.7 1 1.6 1.9 2.7 2.8 2.4 1.9 5.4 2.8 9.2 3.2 3.6.3 8.4.3 14.6.3h.1c2.8 0 5 1 7.2 2.4l2.8 1.9.8.6c1.3.9 2.7 1.9 4.2 2.8.3.2.6.3 1 .3a2 2 0 0 0 2-2v-6.9c2.3-.5 4.3-1.3 6-2.7 1.1-.9 2-1.7 2.7-2.8.7-1.1 1.2-2.2 1.5-3.5.5-2.5.5-5.7.5-10.5v-.5c0-4.9 0-8.8-.5-11.9-.5-3.2-1.7-5.8-4.1-7.7-2.4-1.9-5.4-2.8-9.2-3.2C43.1 6 38.3 6 32.1 6h-.2z"/>
</svg>
