<svg xmlns="http://www.w3.org/2000/svg" width="32" height="32" viewBox="0 0 20 20"><g fill="#fff"><g opacity=".2"><path d="M18.4 15A7.1 7.1 0 1 1 5.8 8.4c1-2.1 4.3-5.2 9.4-5.8 1.1.6-1.2 2 .2 2.8a7.1 7.1 0 0 1 3 9.6"/><path fill-rule="evenodd" d="M15.4 5.4c-.4-.2-.5-.5-.5-.7 0-.3.2-.6.3-.8l.1-.2c.2-.4.4-.8-.1-1a14 14 0 0 0-1.7.2C9.4 4 6.7 6.5 5.8 8.4a7.1 7.1 0 1 0 9.6-3M13 5c-3 1-4.8 3-5.5 4.3a5.1 5.1 0 1 0 7-2.3 2.9 2.9 0 0 1-1.2-1 2.6 2.6 0 0 1-.3-1" clip-rule="evenodd"/></g><path fill-rule="evenodd" d="M7 10.9a.6.6 0 0 0-.4-.7.5.5 0 0 0-.6.4l.5.1H6a3 3 0 0 0 0 .4c0 .3 0 .7.3 1.1.1.4.4.7.6.9a3 3 0 0 0 .4.3l.3-.5-.3.5a.5.5 0 0 0 .7-.2.6.6 0 0 0-.2-.8 2 2 0 0 1-.2-.2 1.6 1.6 0 0 1-.4-.4A1.6 1.6 0 0 1 7 11a2 2 0 0 1 0-.2z" clip-rule="evenodd"/><path fill-rule="evenodd" d="M13.3 1.6c.6.3.3.8 0 1.3-.2.6-.5 1.1.2 1.5a7.1 7.1 0 1 1-9.6 3c1-2 4.1-5 9-5.7h.4m-1 1.1A11 11 0 0 0 4.8 8a6.1 6.1 0 1 0 8.3-2.6 1.9 1.9 0 0 1-.8-.7 1.6 1.6 0 0 1-.2-.9l.2-.9" clip-rule="evenodd"/></g></svg>